#!OML:ASF F:\VICON\USERDATA\INSTALL\rory3\rory3.ASF
:FULLY-SPECIFIED
:DEGREES
2144
root 4.75552 17.362 6.11592 9.22634 -36.1231 10.0944
lowerback 15.5918 5.00958 -0.848958
upperback 7.61478 6.45338 8.34809
thorax -1.66424 2.99593 8.26442
lowerneck -4.97277 -14.9985 -11.3133
upperneck 24.6321 -22.137 10.0024
head 11.2117 -10.1642 2.56284
rclavicle 6.04305e-014 7.63333e-014
rhumerus 2.88375 3.35075 -96.9642
rradius 35.1632
rwrist -44.5792
rhand -35.9847 -26.8457
rfingers 7.12502
rthumb -9.09502 -56.6296
lclavicle 6.04305e-014 7.63333e-014
lhumerus -41.2954 -34.8163 96.0726
lradius 64.9241
lwrist 37.1846
lhand -13.0756 61.2716
lfingers 7.12502
lthumb 13.0203 -1170.85
rfemur -44.1136 -18.0411 16.6237
rtibia 55.1747
rfoot -17.0762 12.3868
rtoes -9.78214
lfemur -28.1704 -6.11846 -28.4008
ltibia 33.2158
lfoot -14.8417 -15.9651
ltoes 1.34277
2145
root 4.75062 17.3658 6.13142 9.07274 -36.0602 10.0661
lowerback 15.5918 5.14158 -0.654894
upperback 7.6536 6.64773 8.32003
thorax -1.62861 3.09495 8.08416
lowerneck -4.92778 -15.1342 -11.2426
upperneck 24.6395 -22.3594 10.0647
head 11.2339 -10.2509 2.53963
rclavicle -1.59028e-014 9.22361e-014
rhumerus 2.33151 3.45403 -97.8626
rradius 34.9893
rwrist -44.7366
rhand -36.873 -26.587
rfingers 7.12502
rthumb -9.95214 -56.3318
lclavicle -1.59028e-014 9.22361e-014
lhumerus -41.8088 -34.4786 95.497
lradius 64.948
lwrist 36.4456
lhand -13.4039 60.9682
lfingers 7.12502
lthumb 12.7039 -1170.56
rfemur -44.1237 -18.2295 16.2828
rtibia 55.7369
rfoot -16.9952 13.0346
rtoes -6.06575
lfemur -27.8829 -6.4121 -28.4086
ltibia 33.1755
lfoot -15.0276 -15.7202
ltoes 0.888575
2146
root 4.74678 17.3642 6.14202 8.8591 -36.0781 10.0789
lowerback 15.706 5.29267 -0.53022
upperback 7.69345 6.86063 8.2932
thorax -1.66103 3.20261 7.93398
lowerneck -4.87097 -15.2508 -11.1368
upperneck 24.6356 -22.5332 10.0381
head 11.2263 -10.3231 2.4918
rclavicle 9.54166e-014 6.36111e-015
rhumerus 1.92938 3.67708 -98.68
rradius 34.804
rwrist -44.9803
rhand -37.2376 -26.142
rfingers 7.12502
rthumb -10.3038 -55.8696
lclavicle 9.54166e-014 6.36111e-015
lhumerus -42.2401 -34.1249 94.9202
lradius 65.0321
lwrist 36.107
lhand -13.974 60.6291
lfingers 7.12502
lthumb 12.1542 -1170.26
rfemur -44.0664 -18.3095 15.8936
rtibia 56.1658
rfoot -17.285 13.1918
rtoes -5.48678
lfemur -27.6097 -6.50563 -28.477
ltibia 33.1406
lfoot -14.871 -15.9024
ltoes 1.59632
2147
root 4.73854 17.3626 6.15275 8.61892 -36.1596 10.1453
lowerback 15.7601 5.48161 -0.586136
upperback 7.75326 7.0987 8.33369
thorax -1.67187 3.31875 7.96127
lowerneck -4.77639 -15.3568 -11.1683
upperneck 24.6083 -22.6869 10.0567
head 11.2242 -10.3955 2.48356
rclavicle -9.22361e-014 -3.49861e-014
rhumerus 1.57783 3.93241 -99.3431
rradius 34.6315
rwrist -45.1848
rhand -37.4152 -26.0681
rfingers 7.12502
rthumb -10.4752 -55.7871
lclavicle -9.22361e-014 -3.49861e-014
lhumerus -42.5493 -33.6276 94.3709
lradius 65.1414
lwrist 35.9983
lhand -14.0132 60.5487
lfingers 7.12502
lthumb 12.1164 -1170.18
rfemur -43.9251 -18.1995 15.352
rtibia 56.4443
rfoot -17.5782 12.8662
rtoes -3.4752
lfemur -27.3354 -6.51352 -28.6007
ltibia 33.1744
lfoot -14.649 -15.6826
ltoes 2.18643
2148
root 4.72821 17.3627 6.16543 8.51444 -36.0425 9.95709
lowerback 15.8326 5.54855 -0.409938
upperback 7.78873 7.2106 8.44572
thorax -1.68185 3.37475 7.9571
lowerneck -4.69219 -15.3893 -11.2313
upperneck 24.5984 -22.7312 10.062
head 11.2192 -10.4231 2.49298
rclavicle -1.27222e-014 -9.54166e-015
rhumerus 1.22491 4.35244 -99.9678
rradius 34.4478
rwrist -45.585
rhand -37.8372 -26.6489
rfingers 7.12502
rthumb -10.8822 -56.3469
lclavicle -1.27222e-014 -9.54166e-015
lhumerus -42.854 -32.9869 93.8042
lradius 65.259
lwrist 35.7678
lhand -13.7001 60.6681
lfingers 7.12502
lthumb 12.4183 -1170.28
rfemur -43.7497 -18.3224 15.1786
rtibia 56.567
rfoot -18.3207 11.6969
rtoes -4.49189
lfemur -27.0526 -6.68834 -28.4512
ltibia 33.245
lfoot -15.0448 -14.6261
ltoes -0.224633
2149
root 4.72114 17.3617 6.17766 8.49145 -35.8618 9.59274
lowerback 15.9361 5.54376 -0.0405189
upperback 7.84756 7.25174 8.58924
thorax -1.65342 3.39595 7.89066
lowerneck -4.7263 -15.3926 -11.3105
upperneck 24.6483 -22.7126 9.99605
head 11.2435 -10.4233 2.48012
rclavicle 1.1609e-013 -5.40694e-014
rhumerus 1.0104 4.65174 -100.594
rradius 34.1834
rwrist -45.5871
rhand -37.8798 -27.2089
rfingers 7.12502
rthumb -10.9233 -56.9048
lclavicle 1.1609e-013 -5.40694e-014
lhumerus -43.0502 -32.3346 93.2118
lradius 65.3288
lwrist 35.5096
lhand -13.5271 60.7427
lfingers 7.12502
lthumb 12.5851 -1170.34
rfemur -43.5597 -18.5597 15.2777
rtibia 56.5564
rfoot -19.7599 9.61683
rtoes -10.6873
lfemur -26.7828 -6.96154 -28.1104
ltibia 33.3166
lfoot -15.0832 -14.647
ltoes 0.284557
2150
root 4.71481 17.364 6.1851 8.46222 -35.6775 9.37737
lowerback 15.9955 5.55089 0.171649
upperback 7.8749 7.29126 8.73279
thorax -1.65365 3.41593 7.91628
lowerneck -4.70368 -15.4115 -11.5195
upperneck 24.6949 -22.7245 10.0022
head 11.287 -10.4431 2.5071
rclavicle 6.20208e-014 4.13472e-014
rhumerus 0.84196 4.51165 -101.119
rradius 33.8271
rwrist -44.6504
rhand -36.6807 -27.3934
rfingers 7.12502
rthumb -9.76656 -57.1469
lclavicle 6.20208e-014 4.13472e-014
lhumerus -43.1972 -31.6279 92.7129
lradius 65.3689
lwrist 35.1063
lhand -13.4515 60.7111
lfingers 7.12502
lthumb 12.6579 -1170.31
rfemur -43.3861 -18.6259 15.1189
rtibia 56.4417
rfoot -20.9174 7.33793
rtoes -15.2371
lfemur -26.6089 -7.19748 -27.9033
ltibia 33.3971
lfoot -14.9872 -14.5931
ltoes 0.769957
2151
root 4.70626 17.3679 6.18634 8.51126 -35.4836 9.22647
lowerback 16.0357 5.5644 0.25634
upperback 7.83248 7.33064 8.88668
thorax -1.73517 3.43722 8.02387
lowerneck -4.64849 -15.4257 -11.7587
upperneck 24.7471 -22.74 10.0418
head 11.3359 -10.4651 2.55132
rclavicle 3.49861e-014 -6.67916e-014
rhumerus 0.44322 4.71001 -101.541
rradius 33.854
rwrist -45.2824
rhand -36.9098 -26.7438
rfingers 7.12502
rthumb -9.98764 -56.4869
lclavicle 3.49861e-014 -6.67916e-014
lhumerus -43.3637 -30.9386 92.3221
lradius 65.4451
lwrist 34.8177
lhand -13.4785 60.7079
lfingers 7.12502
lthumb 12.6319 -1170.31
rfemur -43.2926 -18.5527 14.8155
rtibia 56.2292
rfoot -21.5687 5.46987
rtoes -16.2905
lfemur -26.5619 -7.35742 -27.744
ltibia 33.4572
lfoot -14.9707 -14.4767
ltoes 0.906721
2152
root 4.69607 17.3745 6.1863 8.64057 -35.3458 8.95977
lowerback 16.1597 5.58872 0.41832
upperback 7.74548 7.40193 9.03248
thorax -1.90277 3.47712 8.06304
lowerneck -4.62785 -15.4272 -11.8087
upperneck 24.7901 -22.7266 9.97177
head 11.3434 -10.469 2.53745
rclavicle 2.54444e-014 -4.77083e-014
rhumerus 0.00943419 4.43725 -101.996
rradius 33.9136
rwrist -44.7902
rhand -36.3033 -26.7797
rfingers 7.12502
rthumb -9.40243 -56.55
lclavicle 2.54444e-014 -4.77083e-014
lhumerus -43.5571 -30.4074 91.9824
lradius 65.5571
lwrist 34.6326
lhand -13.4414 60.7489
lfingers 7.12502
lthumb 12.6676 -1170.34
rfemur -43.2025 -18.4194 14.6066
rtibia 55.9116
rfoot -22.1378 3.69087
rtoes -15.2698
lfemur -26.5039 -7.37089 -27.5004
ltibia 33.4445
lfoot -15.015 -14.3888
ltoes 0.739565
2153
root 4.68251 17.385 6.19048 8.72033 -35.203 8.69511
lowerback 16.2643 5.60327 0.611428
upperback 7.69554 7.45994 9.15902
thorax -2.01218 3.50908 8.06957
lowerneck -4.6891 -15.4458 -11.7392
upperneck 24.8672 -22.72 9.79264
head 11.3493 -10.4716 2.46297
rclavicle 3.97569e-014 -6.36111e-015
rhumerus -0.364698 4.28038 -102.381
rradius 34.0766
rwrist -44.7142
rhand -36.6498 -26.6288
rfingers 7.12502
rthumb -9.73674 -56.3837
lclavicle 3.97569e-014 -6.36111e-015
lhumerus -43.6952 -30.0455 91.6938
lradius 65.6125
lwrist 34.3174
lhand -13.4706 60.779
lfingers 7.12502
lthumb 12.6395 -1170.38
rfemur -42.9933 -18.2563 14.343
rtibia 55.5008
rfoot -22.4973 1.95923
rtoes -12.8857
lfemur -26.3435 -7.31471 -27.2827
ltibia 33.3565
lfoot -15.0875 -14.3776
ltoes 0.606774
2154
root 4.66608 17.4002 6.20056 8.7201 -35.0566 8.53451
lowerback 16.2256 5.5851 0.750726
upperback 7.72451 7.45235 9.24942
thorax -1.95418 3.50478 8.09612
lowerneck -4.77578 -15.4514 -11.7086
upperneck 24.9072 -22.7035 9.69393
head 11.3611 -10.4655 2.42054
rclavicle -3.18055e-014 -1.01778e-013
rhumerus -0.633716 4.26939 -102.65
rradius 34.2372
rwrist -44.8833
rhand -36.7365 -26.3214
rfingers 7.12502
rthumb -9.82047 -56.0724
lclavicle -3.18055e-014 -1.01778e-013
lhumerus -43.6774 -29.6023 91.3292
lradius 65.6237
lwrist 33.8698
lhand -13.6057 60.8592
lfingers 7.12502
lthumb 12.5093 -1170.46
rfemur -42.7228 -18.1479 13.9706
rtibia 54.9995
rfoot -22.5347 0.179053
rtoes -10.8417
lfemur -26.0915 -7.37415 -27.1368
ltibia 33.1978
lfoot -14.9772 -14.4694
ltoes 1.43845
